# xmcd
#
# Track frame offsets:
#	150
#	14190
#	37652
#	50059
#	61811
#	86458
#	98918
#	117767
#	129799
#	141636
#	152545
#	165792
#	178804
#	190141
#	202668
#	226035
#	238157
#	251949
#	271733
#	283787
#
# Disc length: 3944 seconds
#
# Revision: 1
# Processed by: cddbd v1.5.2PL0 Copyright (c) Steve Scherf et al.
# Submitted via: CDex 1.50
#
DISCID=0a0f6614
DTITLE=Blues History - Blues Classics 1927-1969 [CD3, 1960-1969)
DYEAR=1960
DGENRE=Blues
TTITLE0=Muddy Waters - Got My Mojo Working (Live)
TTITLE1=Junior Parker - Drivin' Wheel
TTITLE2=Bobby 'blue Bland - I Pity the Fool
TTITLE3=Howlin' Wolf - the Red Rooster
TTITLE4=Howlin' Wolf - I Ain't Superstitious
TTITLE5=Bobby 'blue' Bland - Turn on Your Love Light
TTITLE6=Bobb 'blue Bland - Storm Monda Blues
TTITLE7=Albert Collins - Frost
TTITLE8=Otis Rush - Homework
TTITLE9=Sonn Bo Williamson - Bring It on Home
TTITLE10=B.B. King - How Blue Can You Get
TTITLE11=Howlin' Wolf - Killing Floor
TTITLE12=John Lee Hooker - It Serves Ou Right to Suffer
TTITLE13=Koko Talor - Wang Dang Doodle
TTITLE14=B.B. King - Don't Answer the Door
TTITLE15=John Lee Hooker - I'm in the Mood
TTITLE16=Etta James - Tell Mama
TTITLE17=Etta James - I'd Rather Go Blind
TTITLE18=B.B. King - Paying the Cost to Be the Boss
TTITLE19=B.B. King - the Thrill is Gone
EXTD=YEAR: 1960
EXTT0=
EXTT1=
EXTT2=
EXTT3=
EXTT4=
EXTT5=
EXTT6=
EXTT7=
EXTT8=
EXTT9=
EXTT10=
EXTT11=
EXTT12=
EXTT13=
EXTT14=
EXTT15=
EXTT16=
EXTT17=
EXTT18=
EXTT19=
PLAYORDER=
